<svg width="54" height="54" viewBox="0 0 54 54" fill="none" xmlns="http://www.w3.org/2000/svg">
<path d="M51.75 33.4513C43.8863 36.6309 35.4822 38.2604 27 38.25C18.2467 38.25 9.895 36.545 2.25 33.4513M27 30H27.0275M38 13.5V8C38 6.54131 37.4205 5.14236 36.3891 4.11091C35.3576 3.07946 33.9587 2.5 32.5 2.5H21.5C20.0413 2.5 18.6424 3.07946 17.6109 4.11091C16.5795 5.14236 16 6.54131 16 8V13.5H38ZM7.75 52H46.25C47.7087 52 49.1076 51.4205 50.1391 50.3891C51.1705 49.3576 51.75 47.9587 51.75 46.5V19C51.75 17.5413 51.1705 16.1424 50.1391 15.1109C49.1076 14.0795 47.7087 13.5 46.25 13.5H7.75C6.29131 13.5 4.89236 14.0795 3.86091 15.1109C2.82946 16.1424 2.25 17.5413 2.25 19V46.5C2.25 47.9587 2.82946 49.3576 3.86091 50.3891C4.89236 51.4205 6.29131 52 7.75 52Z" stroke="#3C3B6E" stroke-width="4" stroke-linecap="round" stroke-linejoin="round"/>
</svg>
